<svg height="512pt" viewBox="-22 0 512 512" width="512pt" xmlns="http://www.w3.org/2000/svg"><g fill="#176ee5"><path d="m287.546875 114.382812c-3.839844 0-7.679687-1.464843-10.605469-4.394531-23.769531-23.753906-62.4375-23.753906-86.203125 0-5.859375 5.859375-15.359375 5.855469-21.214843-.003906-5.859376-5.859375-5.855469-15.359375.003906-21.214844 35.460937-35.449219 93.160156-35.449219 128.625 0 5.859375 5.855469 5.863281 15.355469.003906 21.214844-2.929688 2.929687-6.769531 4.398437-10.609375 4.398437zm0 0"/><path d="m257.710938 161.484375c-3.839844 0-7.679688-1.464844-10.605469-4.390625-7.316407-7.3125-19.21875-7.3125-26.53125 0-5.859375 5.855469-15.359375 5.855469-21.214844-.003906-5.859375-5.859375-5.855469-15.359375.003906-21.21875 19.007813-19 49.941407-19 68.953125 0 5.859375 5.859375 5.863282 15.359375.003906 21.21875-2.929687 2.929687-6.769531 4.394531-10.609374 4.394531zm0 0"/><path d="m330.671875 70.027344c-3.839844 0-7.675781-1.464844-10.605469-4.390625-47.546875-47.527344-124.910156-47.527344-172.453125 0-5.859375 5.855469-15.359375 5.855469-21.21875-.003907-5.855469-5.859374-5.855469-15.359374.003907-21.21875 59.246093-59.21875 155.636718-59.21875 214.878906 0 5.859375 5.859376 5.863281 15.359376.003906 21.21875-2.929688 2.929688-6.769531 4.394532-10.609375 4.394532zm0 0"/></g><path d="m317.082031 194.300781c-83.292969 0-151.054687 67.652344-151.054687 150.808594s67.761718 150.808594 151.054687 150.808594 151.058594-67.652344 151.058594-150.808594-67.765625-150.808594-151.058594-150.808594zm0 0" fill="#141b73"/><path d="m371.664062 345.109375c0-30.085937-24.4375-54.480469-54.582031-54.480469s-54.578125 24.394532-54.578125 54.480469c0 30.089844 24.433594 54.480469 54.578125 54.480469s54.582031-24.390625 54.582031-54.480469zm0 0" fill="#ffbf00"/><path d="m317.082031 414.59375c-38.367187 0-69.582031-31.171875-69.582031-69.484375s31.214844-69.480469 69.582031-69.480469c38.367188 0 69.582031 31.167969 69.582031 69.480469s-31.214843 69.484375-69.582031 69.484375zm0 0" fill="#6cf"/><path d="m332.417969 345.109375c0-8.453125-6.863281-15.308594-15.335938-15.308594-8.46875 0-15.335937 6.855469-15.335937 15.308594s6.867187 15.308594 15.335937 15.308594c8.472657 0 15.335938-6.855469 15.335938-15.308594zm0 0" fill="#fff"/><path d="m317.082031 375.421875c-16.726562 0-30.335937-13.597656-30.335937-30.3125 0-16.710937 13.609375-30.308594 30.335937-30.308594 16.730469 0 30.339844 13.597657 30.339844 30.308594 0 16.714844-13.609375 30.3125-30.339844 30.3125zm0-30.617187c-.203125 0-.332031.160156-.332031.304687 0 .148437.128906.304687.332031.304687.207031 0 .335938-.15625.335938-.304687 0-.144531-.128907-.304687-.335938-.304687zm0 0" fill="#39f"/><path d="m319.335938 178.21875h-304.332032c-8.285156 0-15.003906 6.71875-15.003906 15.003906v303.773438c0 8.285156 6.71875 15.003906 15.003906 15.003906h304.332032c8.285156 0 15-6.71875 15-15.003906v-303.773438c0-8.285156-6.714844-15.003906-15-15.003906zm0 0" fill="#fa0"/><path d="m169.527344 88.769531c-5.859375 5.855469-5.863282 15.355469-.003906 21.214844 5.855468 5.859375 15.355468 5.863281 21.214843.003906 11.882813-11.878906 27.492188-17.816406 43.101563-17.816406v-29.988281c-23.292969 0-46.582032 8.859375-64.3125 26.585937zm0 0" fill="#39f"/><path d="m199.359375 157.089844c5.855469 5.859375 15.355469 5.859375 21.214844.003906 3.65625-3.65625 8.460937-5.484375 13.265625-5.484375v-29.988281c-12.484375 0-24.972656 4.75-34.476563 14.25-5.859375 5.859375-5.863281 15.359375-.003906 21.21875zm0 0" fill="#39f"/><path d="m126.402344 44.414062c-5.863282 5.859376-5.863282 15.359376-.003906 21.21875 5.855468 5.859376 15.355468 5.859376 21.214843.003907 23.773438-23.765625 55-35.648438 86.226563-35.648438v-29.988281c-38.910156 0-77.816406 14.804688-107.4375 44.414062zm0 0" fill="#39f"/><path d="m15.003906 178.21875c-8.285156 0-15.003906 6.71875-15.003906 15.003906v303.773438c0 8.285156 6.71875 15.003906 15.003906 15.003906h152.164063v-333.78125zm0 0" fill="#fc3"/><path d="m208.210938 270.097656c-9.078126-6.71875-10.914063-8.746094-10.914063-12.054687 0-8.285157-6.71875-15-15.003906-15-8.285157 0-15.003907 6.714843-15.003907 15v99.800781c-13.171874-1.277344-28.503906 3.535156-41.835937 14.292969-13.070313 10.554687-21.402344 24.476562-22.855469 38.207031-1.003906 9.464844 1.355469 18.03125 6.820313 24.773438 6.515625 8.042968 16.367187 12.023437 27.351562 12.023437 12.15625 0 25.695313-4.875 37.625-14.503906 12.496094-10.085938 20.640625-23.253907 22.609375-36.382813.105469-.539062.179688-1.09375.226563-1.652344.003906-.054687.015625-.113281.023437-.171874.28125-2.671876.285156-5.269532.039063-7.777344v-87.097656c7.472656 6.261718 11.863281 12.859374 10.679687 27.320312-.671875 8.257812 5.472656 15.5 13.730469 16.175781 8.238281.671875 15.5-5.476562 16.175781-13.734375 2.871094-35.132812-16.710937-49.628906-29.667968-59.21875zm0 0" fill="#cc0702"/><path d="m125.453125 372.136719c-13.070313 10.554687-21.402344 24.476562-22.855469 38.207031-1 9.464844 1.355469 18.03125 6.820313 24.773438 6.515625 8.042968 16.367187 12.023437 27.351562 12.023437 9.757813 0 20.40625-3.148437 30.398438-9.367187v-79.9375c-13.144531-1.238282-28.425781 3.574218-41.714844 14.300781zm0 0" fill="#ff2a00"/></svg>